<?xml version="1.0" encoding="UTF-8"?>
<svg id="Layer_1" data-name="Layer 1" xmlns="http://www.w3.org/2000/svg" version="1.1" viewBox="0 0 500 500">
  <defs>
    <style>
      .cls-1 {
        fill: #ba334d;
      }

      .cls-1, .cls-2 {
        stroke-width: 0px;
      }

      .cls-2 {
        fill: #000;
      }
    </style>
  </defs>
  <path class="cls-1" d="M49.44,242.75c-14.73-14.73-22.85-34.31-22.85-55.15s8.11-40.42,22.85-55.16c14.73-14.73,34.32-22.84,55.16-22.84s40.43,8.11,55.15,22.84l24.75,24.75,24.75-24.75c14.72-14.73,34.31-22.84,55.15-22.84s40.43,8.11,55.16,22.84c14.73,14.73,22.85,34.32,22.85,55.16s-8.11,40.42-22.85,55.15l-135.06,135.06L49.44,242.75Z"/>
  <path class="cls-2" d="M264.4,110.1c20.7,0,40.17,8.06,54.8,22.7,14.64,14.64,22.7,34.1,22.7,54.8s-8.06,40.16-22.7,54.79l-24.4,24.4-110.3,110.3-110.3-110.3-24.4-24.4c-14.64-14.63-22.7-34.09-22.7-54.79s8.06-40.16,22.7-54.8c14.64-14.64,34.1-22.7,54.8-22.7s40.17,8.06,54.79,22.7l24.4,24.4.71.71.71-.71,24.4-24.4c14.63-14.64,34.09-22.7,54.79-22.7M264.4,109.1c-20.09,0-40.18,7.66-55.5,22.99l-24.4,24.4-24.4-24.4c-15.32-15.33-35.41-22.99-55.5-22.99s-40.18,7.66-55.51,22.99c-30.66,30.66-30.66,80.36,0,111.01l24.4,24.4,111.01,111.01,111.01-111.01,24.4-24.4c30.66-30.65,30.66-80.35,0-111.01-15.33-15.33-35.42-22.99-55.51-22.99h0Z"/>
</svg>