<?xml version="1.0" encoding="UTF-8"?>
<svg id="Layer_1" data-name="Layer 1" xmlns="http://www.w3.org/2000/svg" version="1.1" viewBox="0 0 500 500">
  <defs>
    <style>
      .cls-1 {
        fill: #85ab70;
      }

      .cls-1, .cls-2, .cls-3 {
        stroke-width: 0px;
      }

      .cls-2 {
        fill: #0071bc;
      }

      .cls-3 {
        fill: #009245;
      }
    </style>
  </defs>
  <g id="Yonca">
    <path class="cls-3" d="M266,350.79c0,64.34-8.48,116-32.5,116s16.5-38.66,16.5-103-40.52-130-16.5-130,32.5,52.66,32.5,117Z"/>
    <g>
      <path class="cls-1" d="M381.14,223.67c27.82,29.06,27.82,76.17,0,105.23-27.83,29.05-72.93,29.05-100.76,0l-30.37-31.72-30.37,31.72c-27.83,29.05-72.93,29.05-100.76,0-27.82-29.06-27.82-76.17,0-105.23l30.37-31.72-30.37-31.72c-27.82-29.06-27.82-76.17,0-105.23,13.91-14.53,32.15-21.79,50.38-21.79s36.47,7.25,50.39,21.79l30.37,31.72,30.37-31.72c13.91-14.53,32.15-21.79,50.39-21.79s36.46,7.25,50.38,21.79c27.82,29.06,27.82,76.17,0,105.23l-30.37,31.72,30.37,31.72Z"/>
      <path class="cls-3" d="M369.6,220.78c25.42,26.56,25.42,69.61,0,96.17-25.43,26.55-66.65,26.55-92.08,0l-27.76-28.99-27.76,28.99c-25.43,26.55-66.65,26.55-92.08,0-25.42-26.56-25.42-69.61,0-96.17l27.76-28.99-27.76-28.99c-25.42-26.56-25.42-69.61,0-96.17,12.72-13.28,29.38-19.91,46.04-19.91s33.33,6.63,46.05,19.91l27.76,28.99,27.76-28.99c12.72-13.28,29.38-19.91,46.05-19.91s33.32,6.63,46.04,19.91c25.42,26.56,25.42,69.61,0,96.17l-27.76,28.99,27.76,28.99Z"/>
    </g>
  </g>
  <path class="cls-2" d="M229.94,493.22c-1.15-.63-2.21-1.07-3.19-1.34-.04-1.25,7.67,3.77,3.19,1.34Z"/>
</svg>