<?xml version="1.0" encoding="UTF-8"?>
<svg id="Layer_1" data-name="Layer 1" xmlns="http://www.w3.org/2000/svg" version="1.1" xmlns:xlink="http://www.w3.org/1999/xlink" viewBox="0 0 240.94 155.91">
  <defs>
    <style>
      .cls-1, .cls-2, .cls-3 {
        stroke-width: 0px;
      }

      .cls-1, .cls-4, .cls-5 {
        fill: #000;
      }

      .cls-2 {
        fill: #c1272d;
      }

      .cls-3 {
        fill: none;
      }

      .cls-6 {
        clip-path: url(#clippath-1);
      }

      .cls-4 {
        font-size: 33.9px;
      }

      .cls-4, .cls-5 {
        font-family: MyriadPro-Regular, 'Myriad Pro';
      }

      .cls-7 {
        clip-path: url(#clippath);
      }

      .cls-5 {
        font-size: 28.68px;
      }
    </style>
    <clipPath id="clippath">
      <rect class="cls-3" y=".05" width="241" height="155.91"/>
    </clipPath>
    <clipPath id="clippath-1">
      <rect class="cls-3" x="261" width="241" height="156"/>
    </clipPath>
  </defs>
  <g class="cls-7">
    <path class="cls-1" d="M-22.48,61l-58.15,116.29c-5.53,11.05,2.51,24.05,14.87,24.05H50.53c12.36,0,20.39-13,14.87-24.05L7.25,61c-6.13-12.25-23.61-12.25-29.73,0Z"/>
    <path class="cls-2" d="M-19.33,94.63l-31.31,63.79c-3.53,7.19,1.7,15.58,9.71,15.58H21.69c8,0,13.24-8.39,9.71-15.58L.09,94.63c-3.96-8.07-15.46-8.07-19.42,0Z"/>
    <path class="cls-1" d="M221.17,56.81l58.15-116.29c5.53-11.05-2.51-24.05-14.87-24.05h-116.29c-12.36,0-20.39,13-14.87,24.05l58.15,116.29c6.13,12.25,23.61,12.25,29.73,0Z"/>
    <path class="cls-2" d="M218.01,23.18l31.31-63.79c3.53-7.19-1.7-15.58-9.71-15.58h-62.61c-8,0-13.24,8.39-9.71,15.58l31.31,63.79c3.96,8.07,15.46,8.07,19.42,0Z"/>
  </g>
  <path class="cls-2" d="M98.59,23.58l-14.6,12.25c-1.88,1.58-1.88,4.14,0,5.72l14.6,12.25c.9.76,1.41,1.79,1.41,2.86v5.68c0,2.23-2.16,4.05-4.82,4.05h-7.52c-2.66,0-4.82-1.81-4.82-4.05v-5.18c0-2.23-2.16-4.05-4.82-4.05h-22.03c-2.66,0-4.82,1.81-4.82,4.05v5.18c0,2.23-2.16,4.05-4.82,4.05h-7.52c-2.66,0-4.82-1.81-4.82-4.05V15.05c0-2.23,2.16-4.05,4.82-4.05h7.52c2.66,0,4.82,1.81,4.82,4.05h0c0,2.23,2.16,4.05,4.82,4.05h22.03c2.66,0,4.82-1.81,4.82-4.05h0c0-2.23,2.16-4.05,4.82-4.05h7.52c2.66,0,4.82,1.81,4.82,4.05v5.68c0,1.07-.51,2.1-1.41,2.86Z"/>
  <text class="cls-5" transform="translate(41.91 92.65) scale(1.06 1)"><tspan x="0" y="0">HNK</tspan></text>
  <text class="cls-4" transform="translate(81.63 130.3) scale(1.03 1)"><tspan x="0" y="0">TASARIM</tspan></text>
  <g class="cls-6">
    <path class="cls-2" d="M316.93,53.49l58.15-116.29c5.53-11.05-2.51-24.05-14.87-24.05h-116.29c-12.36,0-20.39,13-14.87,24.05l58.15,116.29c6.13,12.25,23.61,12.25,29.73,0Z"/>
  </g>
</svg>